<svg width="18" height="20" viewBox="0 0 18 20" fill="none" xmlns="http://www.w3.org/2000/svg">
<path d="M8.79406 0C7.05476 0 5.35452 0.557689 3.90834 1.60254C2.46217 2.6474 1.33501 4.13249 0.669411 5.87002C0.00381032 7.60755 -0.170341 9.51948 0.168979 11.364C0.5083 13.2086 1.34585 14.9029 2.57572 16.2328C3.80559 17.5626 5.37254 18.4682 7.07842 18.8351C8.7843 19.2021 10.5525 19.0137 12.1594 18.294C13.7663 17.5743 15.1397 16.3555 16.106 14.7918C17.0723 13.2281 17.5881 11.3896 17.5881 9.50893C17.5881 8.2602 17.3606 7.02369 16.9187 5.87002C16.4768 4.71634 15.829 3.66809 15.0124 2.7851C14.1958 1.90212 13.2263 1.20169 12.1594 0.723824C11.0925 0.245956 9.94891 0 8.79406 0ZM8.79406 17.1161C7.40262 17.1161 6.04243 16.6699 4.88549 15.834C3.72855 14.9982 2.82682 13.8101 2.29434 12.4201C1.76186 11.03 1.62254 9.50049 1.894 8.02485C2.16545 6.54921 2.83549 5.19374 3.81939 4.12987C4.80329 3.06599 6.05685 2.34148 7.42155 2.04796C8.78625 1.75443 10.2008 1.90508 11.4863 2.48085C12.7719 3.05661 13.8706 4.03164 14.6436 5.28263C15.4167 6.53361 15.8293 8.00438 15.8293 9.50893C15.8293 11.5265 15.0881 13.4614 13.7687 14.888C12.4494 16.3146 10.6599 17.1161 8.79406 17.1161Z" fill="#272727"/>
<path d="M8.79402 14.2634C9.2797 14.2634 9.67342 13.8377 9.67342 13.3125C9.67342 12.7873 9.2797 12.3616 8.79402 12.3616C8.30834 12.3616 7.91461 12.7873 7.91461 13.3125C7.91461 13.8377 8.30834 14.2634 8.79402 14.2634Z" fill="#272727"/>
<path d="M8.79402 4.75446C8.56078 4.75446 8.3371 4.85465 8.17218 5.03297C8.00726 5.2113 7.91461 5.45316 7.91461 5.70536V10.4598C7.91461 10.712 8.00726 10.9539 8.17218 11.1322C8.3371 11.3105 8.56078 11.4107 8.79402 11.4107C9.02725 11.4107 9.25093 11.3105 9.41585 11.1322C9.58077 10.9539 9.67342 10.712 9.67342 10.4598V5.70536C9.67342 5.45316 9.58077 5.2113 9.41585 5.03297C9.25093 4.85465 9.02725 4.75446 8.79402 4.75446Z" fill="#272727"/>
</svg>
