<svg width="9" height="15" viewBox="0 0 9 15" fill="none" xmlns="http://www.w3.org/2000/svg">
<path d="M1.29184 2.43603C1.1175 2.24585 1.02064 1.99562 1.03033 1.73538C1.03033 1.47513 1.12718 1.23491 1.31121 1.04473C1.48554 0.864558 1.72768 0.754455 1.9795 0.754455C2.23132 0.754455 2.47345 0.84454 2.65748 1.02471L8.13941 6.69003C8.22658 6.78011 8.29438 6.89022 8.34281 7.01033C8.39123 7.13044 8.42029 7.26056 8.42029 7.39069C8.42029 7.52081 8.39123 7.65093 8.34281 7.78105C8.29438 7.90117 8.22658 8.01127 8.13941 8.10135L2.65748 13.7667C2.57031 13.8568 2.46377 13.9368 2.34754 13.9869C2.22163 14.0369 2.09572 14.067 1.96981 14.067C1.8439 14.067 1.70831 14.0469 1.59208 13.9969C1.47586 13.9468 1.36932 13.8668 1.27246 13.7767C1.1853 13.6866 1.1175 13.5665 1.06907 13.4464C1.01096 13.3263 0.991587 13.1961 0.991587 13.056C0.991587 12.9259 1.02064 12.7958 1.06907 12.6756C1.1175 12.5555 1.19498 12.4454 1.29183 12.3453L6.08611 7.39069L5.17568 6.45981L1.29184 2.43603Z" fill="#181725"/>
</svg>
