<svg width="21" height="20" viewBox="0 0 21 20" fill="none" xmlns="http://www.w3.org/2000/svg">
<path d="M8.20457 0H1.57209C1.27891 0 0.997748 0.117063 0.790443 0.325437C0.583138 0.533811 0.466675 0.816426 0.466675 1.11111V7.77778C0.466675 8.07246 0.583138 8.35508 0.790443 8.56345C0.997748 8.77183 1.27891 8.88889 1.57209 8.88889H8.20457C8.49774 8.88889 8.77891 8.77183 8.98621 8.56345C9.19352 8.35508 9.30998 8.07246 9.30998 7.77778V1.11111C9.30998 0.816426 9.19352 0.533811 8.98621 0.325437C8.77891 0.117063 8.49774 0 8.20457 0ZM7.09915 6.66667H2.6775V2.22222H7.09915V6.66667ZM19.2587 11.1111H12.6262C12.333 11.1111 12.0519 11.2282 11.8446 11.4365C11.6373 11.6449 11.5208 11.9275 11.5208 12.2222V18.8889C11.5208 19.1836 11.6373 19.4662 11.8446 19.6746C12.0519 19.8829 12.333 20 12.6262 20H19.2587C19.5519 20 19.833 19.8829 20.0403 19.6746C20.2476 19.4662 20.3641 19.1836 20.3641 18.8889V12.2222C20.3641 11.9275 20.2476 11.6449 20.0403 11.4365C19.833 11.2282 19.5519 11.1111 19.2587 11.1111ZM18.1533 17.7778H13.7316V13.3333H18.1533V17.7778ZM15.9425 0C13.5039 0 11.5208 1.99333 11.5208 4.44444C11.5208 6.89556 13.5039 8.88889 15.9425 8.88889C18.381 8.88889 20.3641 6.89556 20.3641 4.44444C20.3641 1.99333 18.381 0 15.9425 0ZM15.9425 6.66667C14.7232 6.66667 13.7316 5.67 13.7316 4.44444C13.7316 3.21889 14.7232 2.22222 15.9425 2.22222C17.1617 2.22222 18.1533 3.21889 18.1533 4.44444C18.1533 5.67 17.1617 6.66667 15.9425 6.66667ZM4.88833 11.1111C2.44979 11.1111 0.466675 13.1044 0.466675 15.5556C0.466675 18.0067 2.44979 20 4.88833 20C7.32687 20 9.30998 18.0067 9.30998 15.5556C9.30998 13.1044 7.32687 11.1111 4.88833 11.1111ZM4.88833 17.7778C3.66906 17.7778 2.6775 16.7811 2.6775 15.5556C2.6775 14.33 3.66906 13.3333 4.88833 13.3333C6.1076 13.3333 7.09915 14.33 7.09915 15.5556C7.09915 16.7811 6.1076 17.7778 4.88833 17.7778Z" fill="black"/>
</svg>
