<svg width="18" height="20" viewBox="0 0 18 20" fill="none" xmlns="http://www.w3.org/2000/svg">
<path d="M8.79406 0C7.05476 0 5.35452 0.557689 3.90834 1.60254C2.46217 2.6474 1.33501 4.13249 0.669411 5.87002C0.00381032 7.60755 -0.170341 9.51948 0.168979 11.364C0.5083 13.2086 1.34585 14.9029 2.57572 16.2328C3.80559 17.5626 5.37254 18.4682 7.07842 18.8351C8.7843 19.2021 10.5525 19.0137 12.1594 18.294C13.7663 17.5743 15.1397 16.3555 16.106 14.7918C17.0723 13.2281 17.5881 11.3896 17.5881 9.50893C17.5881 8.2602 17.3606 7.02369 16.9187 5.87002C16.4768 4.71634 15.829 3.66809 15.0124 2.7851C14.1958 1.90212 13.2263 1.20169 12.1594 0.723824C11.0925 0.245956 9.94891 0 8.79406 0ZM8.79406 17.1161C7.40262 17.1161 6.04243 16.6699 4.88549 15.834C3.72855 14.9982 2.82682 13.8101 2.29434 12.4201C1.76186 11.03 1.62254 9.50049 1.894 8.02485C2.16545 6.54921 2.83549 5.19374 3.81939 4.12987C4.80329 3.06599 6.05685 2.34148 7.42155 2.04796C8.78625 1.75443 10.2008 1.90508 11.4863 2.48085C12.7719 3.05661 13.8706 4.03164 14.6436 5.28263C15.4167 6.53361 15.8293 8.00438 15.8293 9.50893C15.8293 11.5265 15.0881 13.4614 13.7687 14.888C12.4494 16.3146 10.6599 17.1161 8.79406 17.1161Z" fill="#272727"/>
<path d="M8.98557 3.80364C8.16926 3.80364 7.38638 4.15428 6.80916 4.77842C6.23193 5.40257 5.90765 6.24909 5.90765 7.13176C5.90765 7.38395 6.00031 7.62582 6.16523 7.80414C6.33015 7.98247 6.55383 8.08265 6.78706 8.08265C7.02029 8.08265 7.24397 7.98247 7.40889 7.80414C7.57381 7.62582 7.66646 7.38395 7.66646 7.13176C7.66646 6.84966 7.74383 6.57389 7.88877 6.33933C8.03372 6.10477 8.23974 5.92195 8.48077 5.814C8.72181 5.70604 8.98704 5.67779 9.24292 5.73283C9.4988 5.78787 9.73384 5.92371 9.91832 6.12319C10.1028 6.32267 10.2284 6.57681 10.2793 6.8535C10.3302 7.13018 10.3041 7.41697 10.2043 7.6776C10.1044 7.93823 9.93536 8.16099 9.71843 8.31772C9.5015 8.47445 9.24647 8.5581 8.98557 8.5581C8.75234 8.5581 8.52866 8.65828 8.36374 8.83661C8.19882 9.01494 8.10617 9.2568 8.10617 9.50899V11.4108C8.10617 11.663 8.19882 11.9048 8.36374 12.0832C8.52866 12.2615 8.75234 12.3617 8.98557 12.3617C9.21881 12.3617 9.44249 12.2615 9.60741 12.0832C9.77233 11.9048 9.86498 11.663 9.86498 11.4108V10.3077C10.5756 10.0833 11.1873 9.58874 11.5873 8.9151C11.9873 8.24147 12.1486 7.43421 12.0415 6.64211C11.9344 5.85002 11.5661 5.12648 11.0045 4.60485C10.4429 4.08322 9.72589 3.79867 8.98557 3.80364Z" fill="#272727"/>
<path d="M8.98555 15.2143C9.47123 15.2143 9.86495 14.7886 9.86495 14.2634C9.86495 13.7382 9.47123 13.3125 8.98555 13.3125C8.49986 13.3125 8.10614 13.7382 8.10614 14.2634C8.10614 14.7886 8.49986 15.2143 8.98555 15.2143Z" fill="#181725"/>
</svg>
