<svg width="17" height="22" viewBox="0 0 17 22" fill="none" xmlns="http://www.w3.org/2000/svg">
<path fill-rule="evenodd" clip-rule="evenodd" d="M1 9.03355C1.01395 4.58164 4.35325 0.984922 8.45855 1.00005C12.5638 1.01517 15.8805 4.63642 15.8666 9.08832V9.17961C15.8161 12.0735 14.3261 14.7483 12.4993 16.8388C11.4546 18.0153 10.2879 19.0568 9.02257 19.9427C8.68423 20.2601 8.18236 20.2601 7.84402 19.9427C5.95769 18.6112 4.30211 16.9302 2.95303 14.9765C1.75061 13.2729 1.06793 11.2051 1 9.06094L1 9.03355Z" stroke="#272727" stroke-width="2" stroke-linecap="round" stroke-linejoin="round"/>
<path fill-rule="evenodd" clip-rule="evenodd" d="M8.43349 11.4341C9.57713 11.4341 10.5042 10.4288 10.5042 9.18855C10.5042 7.94835 9.57713 6.94296 8.43349 6.94296C7.28984 6.94296 6.36273 7.94835 6.36273 9.18855C6.36273 10.4288 7.28984 11.4341 8.43349 11.4341Z" stroke="#272727" stroke-width="2" stroke-linecap="round" stroke-linejoin="round"/>
</svg>
