<svg width="18" height="22" viewBox="0 0 18 22" fill="none" xmlns="http://www.w3.org/2000/svg">
<path d="M15.3239 8.82293L15.8207 8.76665L15.755 8.18648L15.1918 8.34068L15.3239 8.82293ZM9.1001 3.0008L9.59012 3.10019L9.70974 2.51045L9.10806 2.50087L9.1001 3.0008ZM2.67988 8.79405L3.1767 8.85033L3.1767 8.85033L2.67988 8.79405ZM2.335 11.8385L1.83818 11.7822L1.83818 11.7822L2.335 11.8385ZM1.45574 13.8801L1.83678 14.2038L1.83678 14.2038L1.45574 13.8801ZM16.5448 13.8801L16.1637 14.2038L16.1637 14.2038L16.5448 13.8801ZM15.6655 11.8385L16.1623 11.7822L16.1623 11.7822L15.6655 11.8385ZM11.9724 19.0715L12.4357 19.2594L12.4357 19.2594L11.9724 19.0715ZM6.02814 19.0715L5.5648 19.2594L5.5648 19.2594L6.02814 19.0715ZM14.0003 7.49997C15.9333 7.49997 17.5003 5.93297 17.5003 3.99997H16.5003C16.5003 5.38068 15.381 6.49997 14.0003 6.49997V7.49997ZM10.5003 3.99997C10.5003 5.93297 12.0673 7.49997 14.0003 7.49997V6.49997C12.6195 6.49997 11.5003 5.38068 11.5003 3.99997H10.5003ZM14.0003 0.499969C12.0673 0.499969 10.5003 2.06697 10.5003 3.99997H11.5003C11.5003 2.61926 12.6195 1.49997 14.0003 1.49997V0.499969ZM17.5003 3.99997C17.5003 2.06697 15.9333 0.499969 14.0003 0.499969V1.49997C15.381 1.49997 16.5003 2.61926 16.5003 3.99997H17.5003ZM14.0002 9.50001C14.5035 9.50001 14.9917 9.43229 15.4559 9.30518L15.1918 8.34068C14.8129 8.44445 14.4134 8.50001 14.0002 8.50001V9.50001ZM8.50024 4.00001C8.50024 7.03758 10.9627 9.50001 14.0002 9.50001V8.50001C11.515 8.50001 9.50024 6.48529 9.50024 4.00001H8.50024ZM8.61008 2.90142C8.538 3.25681 8.50024 3.62426 8.50024 4.00001H9.50024C9.50024 3.69139 9.53124 3.39053 9.59012 3.10019L8.61008 2.90142ZM9.00025 3.50001C9.03093 3.50001 9.06156 3.50025 9.09214 3.50074L9.10806 2.50087C9.07218 2.5003 9.03624 2.50001 9.00025 2.50001V3.50001ZM3.1767 8.85033C3.52357 5.78828 6.03707 3.50001 9.00025 3.50001V2.50001C5.50531 2.50001 2.58456 5.19345 2.18306 8.73777L3.1767 8.85033ZM2.83183 11.8948L3.1767 8.85033L2.18306 8.73777L1.83818 11.7822L2.83183 11.8948ZM1.83678 14.2038C2.38888 13.554 2.7351 12.7487 2.83183 11.8948L1.83818 11.7822C1.76352 12.4413 1.49653 13.0598 1.07469 13.5563L1.83678 14.2038ZM2.83038 16.5C1.71608 16.5 1.06045 15.1176 1.83678 14.2038L1.07469 13.5563C-0.215784 15.0752 0.806035 17.5 2.83038 17.5V16.5ZM15.1701 16.5H2.83038V17.5H15.1701V16.5ZM16.1637 14.2038C16.94 15.1176 16.2844 16.5 15.1701 16.5V17.5C17.1945 17.5 18.2163 15.0752 16.9258 13.5563L16.1637 14.2038ZM15.1687 11.8948C15.2654 12.7487 15.6116 13.554 16.1637 14.2038L16.9258 13.5563C16.504 13.0598 16.237 12.4413 16.1623 11.7822L15.1687 11.8948ZM14.8271 8.87921L15.1687 11.8948L16.1623 11.7822L15.8207 8.76665L14.8271 8.87921ZM9.00025 21.5C10.5532 21.5 11.8992 20.5823 12.4357 19.2594L11.509 18.8836C11.1308 19.8161 10.1603 20.5 9.00025 20.5V21.5ZM5.5648 19.2594C6.10133 20.5823 7.44727 21.5 9.00025 21.5V20.5C7.84016 20.5 6.86969 19.8161 6.49149 18.8836L5.5648 19.2594ZM5.50025 18.9233C5.50025 19.0315 5.51906 19.1466 5.5648 19.2594L6.49149 18.8836C6.4991 18.9023 6.50025 18.9165 6.50025 18.9233H5.50025ZM6.42354 18C5.91362 18 5.50025 18.4134 5.50025 18.9233H6.50025C6.50025 18.9657 6.46591 19 6.42354 19V18ZM11.577 18H6.42354V19H11.577V18ZM12.5003 18.9233C12.5003 18.4134 12.0869 18 11.577 18V19C11.5346 19 11.5003 18.9657 11.5003 18.9233H12.5003ZM12.4357 19.2594C12.4814 19.1466 12.5003 19.0315 12.5003 18.9233H11.5003C11.5003 18.9165 11.5014 18.9023 11.509 18.8836L12.4357 19.2594Z" fill="black"/>
</svg>
