<svg width="18" height="20" viewBox="0 0 18 20" fill="none" xmlns="http://www.w3.org/2000/svg">
<path fill-rule="evenodd" clip-rule="evenodd" d="M4.79999 4.32589C5.05998 2.24837 6.99088 0.522324 9.19212 0.522324C11.3934 0.522324 13.3243 2.24837 13.5843 4.32589H16.1318C17.1086 4.32589 17.9005 5.17735 17.9005 6.22768C17.9005 6.31767 17.8946 6.40755 17.8827 6.49663L16.3667 17.9073C16.2422 18.8443 15.4959 19.5402 14.6157 19.5402H3.76854C2.88833 19.5402 2.14206 18.8443 2.01758 17.9073L0.501522 6.49663C0.363375 5.45686 1.03532 4.49355 2.00235 4.34501C2.0852 4.33228 2.16879 4.32589 2.25248 4.32589H4.79999ZM11.7814 4.32589C11.5126 3.31612 10.4285 2.42411 9.19212 2.42411C7.95574 2.42411 6.87163 3.31612 6.60279 4.32589H11.7814ZM2.25248 6.22768H4.77027V8.12947H6.53901V6.22768H11.8452V8.12947H13.614V6.22768H16.1318L14.6157 17.6384H3.76854L2.25248 6.22768Z" fill="#272727"/>
</svg>
