<svg width="17" height="17" viewBox="0 0 17 17" fill="none" xmlns="http://www.w3.org/2000/svg">
<path fill-rule="evenodd" clip-rule="evenodd" d="M7.70454 1H9.29546C10.1741 1 10.8864 1.67157 10.8864 2.5C10.8864 3.44801 11.9007 4.05074 12.7333 3.59748L12.8179 3.55145C13.5788 3.13723 14.5518 3.38305 14.9911 4.10049L15.7866 5.39952C16.2259 6.11696 15.9652 7.03435 15.2043 7.44856C14.3712 7.90203 14.3712 9.09797 15.2043 9.55144C15.9652 9.96565 16.2259 10.883 15.7866 11.6005L14.9911 12.8995C14.5518 13.617 13.5788 13.8628 12.8179 13.4486L12.7333 13.4025C11.9007 12.9493 10.8864 13.552 10.8864 14.5C10.8864 15.3284 10.1741 16 9.29546 16H7.70454C6.8259 16 6.11363 15.3284 6.11363 14.5C6.11363 13.552 5.0993 12.9493 4.26667 13.4025L4.1821 13.4486C3.42117 13.8628 2.44818 13.617 2.00887 12.8995L1.21341 11.6005C0.774089 10.883 1.0348 9.96566 1.79572 9.55145C2.62876 9.09798 2.62876 7.90202 1.79572 7.44855C1.0348 7.03434 0.77409 6.11695 1.21341 5.39951L2.00887 4.10048C2.44819 3.38304 3.42117 3.13722 4.1821 3.55144L4.26667 3.59747C5.0993 4.05073 6.11363 3.44801 6.11363 2.5C6.11363 1.67157 6.8259 1 7.70454 1ZM8.50001 11C9.88072 11 11 9.88071 11 8.5C11 7.11929 9.88072 6 8.50001 6C7.1193 6 6.00001 7.11929 6.00001 8.5C6.00001 9.88071 7.1193 11 8.50001 11Z" fill="white" stroke="black" stroke-width="1.5" stroke-linejoin="round"/>
</svg>
