<svg width="16" height="22" viewBox="0 0 16 22" fill="none" xmlns="http://www.w3.org/2000/svg">
<path d="M4 17H12M4 17C4 19.2091 5.79086 21 8 21C10.2091 21 12 19.2091 12 17M4 17V14.7887C4 14.1349 3.66659 13.5363 3.19153 13.0871C1.84201 11.8111 1 10.0039 1 8C1 4.13401 4.13401 1 8 1C11.866 1 15 4.13401 15 8C15 10.0039 14.158 11.8111 12.8085 13.0871C12.3334 13.5363 12 14.1349 12 14.7887V17M6 8L8 10M8 10L10 8M8 10V17" stroke="black" stroke-width="1.5" stroke-linecap="round" stroke-linejoin="round"/>
</svg>
